<svg width="52" height="72" viewBox="0 0 52 72" fill="none" xmlns="http://www.w3.org/2000/svg">
<path d="M51.5 19C51.5 22.4667 51.5333 26.2 51.6 30.2C51.6667 34.1333 51.6667 37.9667 51.6 41.7C51.5333 45.3667 51.3333 48.7333 51 51.8C50.6667 54.8667 50.1 57.2333 49.3 58.9C47.9667 61.7667 46.3 64.0333 44.3 65.7C42.3 67.3667 40.1 68.6 37.7 69.4C35.3 70.2 32.8 70.7 30.2 70.9C27.6 71.0333 25 71 22.4 70.8C21.0667 70.7333 19.6 70.5333 18 70.2C16.4 69.8667 14.8 69.4333 13.2 68.9C11.6 68.3667 10.1 67.7 8.7 66.9C7.3 66.1 6.1 65.2 5.1 64.2C3.36667 62.4 2.16667 60.4667 1.5 58.4C0.9 56.2667 0.6 54.0333 0.6 51.7C0.6 50.6333 0.633333 49.5667 0.7 48.5C0.766667 47.3667 0.933333 46.2667 1.2 45.2C1.46667 44.1333 1.9 43.1333 2.5 42.2C3.1 41.2 3.9 40.3 4.9 39.5C7.9 37.1 11.0667 35.6 14.4 35C17.7333 34.3333 21.5 34 25.7 34C31.3667 34 36.1 34.9333 39.9 36.8C43.7 38.6667 46.2667 40.9667 47.6 43.7C47.7333 40.1 47.7667 36.4 47.7 32.6C47.7 28.7333 47.6667 24.3667 47.6 19.5C47.5333 17.3 46.7667 15.6 45.3 14.4C43.8333 13.1333 42.0333 12.2 39.9 11.6C37.7667 10.9333 35.5333 10.5 33.2 10.3C30.8667 10.1 28.8 10 27 10C20.9333 9.86666 16.1667 10.3 12.7 11.3C9.3 12.3 7.43333 14.0667 7.1 16.6C6.96667 17.9333 6.96667 19.1333 7.1 20.2C7.3 21.2667 7.56667 22.2333 7.9 23.1C8.3 23.9 8.66667 24.6333 9 25.3C9.4 25.9 9.73333 26.4667 10 27H4.5C4.03333 26 3.66667 24.4667 3.4 22.4C3.2 20.2667 3.16667 18.2 3.3 16.2C3.5 13.4 4.2 11.0333 5.4 9.1C6.6 7.16667 8.2 5.6 10.2 4.4C12.2667 3.13333 14.7 2.23333 17.5 1.7C20.3 1.16666 23.4333 0.933329 26.9 0.999995C30.2333 1.06666 33.3667 1.3 36.3 1.7C39.3 2.03333 41.9 2.83333 44.1 4.1C46.3667 5.3 48.1667 7.06666 49.5 9.39999C50.8333 11.7333 51.5 14.9333 51.5 19ZM47 51.7C47 51.5667 47 51.4667 47 51.4C47.0667 51.3333 47.1 51.2333 47.1 51.1C46.8333 48.9 45.6333 47.0667 43.5 45.6C41.4333 44.1333 39.1333 43.2667 36.6 43C34.5333 42.8 32.6 42.6333 30.8 42.5C29.0667 42.3667 27.3667 42.2667 25.7 42.2C24.0333 42.1333 22.3667 42.1333 20.7 42.2C19.1 42.2667 17.4333 42.3667 15.7 42.5C12.4333 42.7667 9.66667 43.6 7.4 45C5.13333 46.3333 4 48.5667 4 51.7C4 52.9667 4.23333 54.0667 4.7 55C5.23333 55.9333 5.86667 56.7333 6.6 57.4C7.4 58 8.26667 58.5333 9.2 59C10.2 59.4 11.1667 59.8 12.1 60.2C13.4333 60.7333 15.1667 61.1667 17.3 61.5C19.4333 61.8333 21.7667 62.0333 24.3 62.1C26.8333 62.1667 29.3667 62.0333 31.9 61.7C34.5 61.3667 36.8667 60.8 39 60C41.2 59.2 43 58.1333 44.4 56.8C45.8667 55.4 46.7333 53.7 47 51.7Z" fill="#FF001A"/>
</svg>
